<svg width="25" height="25" viewBox="0 0 25 25" fill="none" xmlns="http://www.w3.org/2000/svg">
<g clip-path="url(#clip0)">
<path fill-rule="evenodd" clip-rule="evenodd" d="M12.4561 22.88L12.4664 22.88H12.4628L12.4561 22.88ZM12.5372 22.88H12.5336L12.5439 22.88L12.5372 22.88ZM12.4209 22.8798L12.432 22.8798H12.4257L12.4209 22.8798ZM12.5743 22.8798H12.568L12.5791 22.8798L12.5743 22.8798ZM12.3871 22.8795L12.3945 22.8796L12.3885 22.8795H12.3871ZM12.6115 22.8795L12.6055 22.8796L12.6129 22.8795H12.6115ZM12.6486 22.8791L12.646 22.8792L12.656 22.879L12.6486 22.8791ZM12.344 22.879L12.354 22.8792L12.3514 22.8791L12.344 22.879ZM12.6856 22.8786L12.6796 22.8787L12.6919 22.8785L12.6856 22.8786ZM12.3081 22.8785L12.3204 22.8787L12.3144 22.8786L12.3081 22.8785ZM12.7226 22.8779L12.7145 22.8781L12.7259 22.8779L12.7226 22.8779ZM12.2741 22.8779L12.2855 22.8781L12.2774 22.8779L12.2741 22.8779ZM12.232 22.877L12.2421 22.8772L12.2404 22.8772L12.232 22.877ZM12.7596 22.8772L12.7579 22.8772L12.768 22.877L12.7596 22.8772ZM12.1951 22.8761L12.209 22.8764L12.2034 22.8763L12.1951 22.8761ZM12.7966 22.8763L12.791 22.8764L12.8049 22.8761L12.7966 22.8763ZM12.8336 22.8753L12.8246 22.8756L12.8388 22.8752L12.8336 22.8753ZM12.1612 22.8752L12.1754 22.8756L12.1664 22.8753L12.1612 22.8752ZM12.9074 22.873L12.9024 22.8732L12.9179 22.8726L12.9074 22.873ZM12.0821 22.8726L12.0976 22.8732L12.0926 22.873L12.0821 22.8726ZM12.0485 22.8714L12.0648 22.872L12.0557 22.8716L12.0485 22.8714ZM12.9443 22.8716L12.9352 22.872L12.9515 22.8714L12.9443 22.8716ZM12.0155 22.87L12.0314 22.8707L12.0189 22.8702L12.0155 22.87ZM12.9811 22.8702L12.9686 22.8707L12.9845 22.87L12.9811 22.8702ZM11.9692 22.868L11.9863 22.8688L11.9821 22.8686L11.9692 22.868ZM13.0179 22.8686L13.0137 22.8688L13.0308 22.868L13.0179 22.8686ZM11.936 22.8665L11.9537 22.8673L11.9453 22.867L11.936 22.8665ZM13.0547 22.867L13.0463 22.8673L13.064 22.8665L13.0547 22.867ZM11.9033 22.8649L11.9211 22.8657L11.9086 22.8652L11.9033 22.8649ZM13.0914 22.8652L13.0789 22.8657L13.0967 22.8649L13.0914 22.8652ZM13.1281 22.8632L13.1119 22.8641L13.1263 22.8633L13.1433 22.8624L13.1281 22.8632ZM11.8737 22.8633L11.8881 22.8641L11.8719 22.8632L11.8567 22.8624L11.8737 22.8633ZM13.1648 22.8612L13.1576 22.8616L13.1759 22.8606L13.1648 22.8612ZM11.8242 22.8606L11.8424 22.8616L11.8352 22.8612L11.8242 22.8606ZM11.7917 22.8586L11.8099 22.8597L11.7985 22.8591L11.7917 22.8586ZM13.2015 22.8591L13.1901 22.8597L13.2083 22.8586L13.2015 22.8591ZM11.7608 22.8567L11.7772 22.8577L11.7619 22.8568L11.7465 22.8558L11.7608 22.8567ZM13.2381 22.8568L13.2228 22.8577L13.2392 22.8567L13.2535 22.8558L13.2381 22.8568ZM13.2747 22.8544L13.2692 22.8548L13.2866 22.8536L13.2747 22.8544ZM11.7134 22.8536L11.7308 22.8548L11.7253 22.8544L11.7134 22.8536ZM11.681 22.8514L11.6981 22.8526L11.6888 22.852L11.681 22.8514ZM13.3112 22.852L13.3019 22.8526L13.319 22.8514L13.3112 22.852ZM11.6487 22.8491L11.6644 22.8502L11.6522 22.8494L11.6487 22.8491ZM13.3478 22.8494L13.3356 22.8502L13.3513 22.8491L13.3478 22.8494ZM11.6053 22.8459L11.619 22.8469L11.6157 22.8467L11.6053 22.8459ZM13.3843 22.8467L13.381 22.8469L13.3947 22.8459L13.3843 22.8467ZM13.4207 22.8438L13.4142 22.8443L13.4281 22.8432L13.4207 22.8438ZM11.5719 22.8432L11.5858 22.8443L11.5793 22.8438L11.5719 22.8432ZM11.5393 22.8406L11.5512 22.8416L11.5428 22.8409L11.5393 22.8406ZM13.4572 22.8409L13.4488 22.8416L13.4607 22.8406L13.4572 22.8409ZM13.53 22.8347L13.5267 22.835L13.5349 22.8342L13.53 22.8347ZM11.4651 22.8342L11.4733 22.835L11.47 22.8347L11.4651 22.8342ZM11.4314 22.8312L11.4375 22.8318L11.4337 22.8314L11.4314 22.8312ZM13.5663 22.8314L13.5625 22.8318L13.5686 22.8312L13.5663 22.8314ZM10.7031 22.7409C5.20833 21.8818 1 17.1459 1 11.44C1 5.12611 6.15299 0 12.5 0C18.847 0 24 5.12611 24 11.44C24 17.1459 19.7917 21.8818 14.2969 22.7409V14.7469H16.9765L17.4863 11.44H14.2969V9.29408C14.2969 8.38938 14.7424 7.50751 16.171 7.50751H17.6211V4.6922C17.6211 4.6922 16.3051 4.46876 15.0468 4.46876C12.42 4.46876 10.7031 6.05249 10.7031 8.91964V11.44H7.7832V14.7469H10.7031V22.7409Z" fill="#E2E2E2" fill-opacity="0.75"/>
</g>
<defs>
<clipPath id="clip0">
<rect width="25" height="25" fill="white"/>
</clipPath>
</defs>
</svg>
