<svg width="25" height="25" viewBox="0 0 25 25" fill="none" xmlns="http://www.w3.org/2000/svg">
<path d="M12.348 1.06116C5.99854 1.06116 0.849487 6.31218 0.849487 12.79C0.849487 17.971 4.14435 22.3662 8.71551 23.9184C9.29046 24.0268 9.5004 23.6647 9.5004 23.3536C9.5004 23.0746 9.49052 22.3371 9.4845 21.3587C6.28613 22.067 5.61065 19.786 5.61065 19.786C5.08877 18.4307 4.33395 18.0702 4.33395 18.0702C3.28884 17.343 4.41169 17.3578 4.41169 17.3578C5.56592 17.4408 6.17253 18.5667 6.17253 18.5667C7.19889 20.3584 8.86512 19.8414 9.52055 19.5407C9.62398 18.7828 9.92146 18.266 10.2509 17.9725C7.69773 17.676 5.01238 16.6697 5.01238 12.1767C5.01238 10.896 5.46109 9.84914 6.19687 9.02834C6.07758 8.73191 5.68376 7.53874 6.30912 5.92512C6.30912 5.92512 7.27524 5.60994 9.47149 7.12698C10.3887 6.86697 11.372 6.73723 12.3509 6.73284C13.3269 6.73884 14.3114 6.86697 15.2301 7.12859C17.4253 5.6113 18.3899 5.92673 18.3899 5.92673C19.0165 7.54182 18.6227 8.73347 18.5049 9.02971C19.2422 9.85051 19.6865 10.8974 19.6865 12.1782C19.6865 16.683 16.9984 17.6745 14.4369 17.965C14.8494 18.3274 15.2172 19.0426 15.2172 20.1364C15.2172 21.705 15.2029 22.9694 15.2029 23.3536C15.2029 23.6674 15.4098 24.0324 15.9934 23.9171C20.5576 22.3632 23.8495 17.9696 23.8495 12.79C23.8495 6.31213 18.7005 1.06116 12.348 1.06116Z" fill="#E2E2E2" fill-opacity="0.75"/>
</svg>
