<svg width="25" height="25" viewBox="0 0 25 25" fill="none" xmlns="http://www.w3.org/2000/svg">
<path fill-rule="evenodd" clip-rule="evenodd" d="M11.5 0C17.847 0 23 5.1261 23 11.44C23 17.7539 17.847 22.88 11.5 22.88C5.15299 22.88 0 17.7539 0 11.44C0 5.1261 5.15299 0 11.5 0ZM11.5 4.29C9.54801 4.29 9.30323 4.29822 8.53659 4.33303C7.77157 4.36776 7.24909 4.48864 6.79187 4.66537C6.31925 4.8481 5.91841 5.09259 5.51883 5.49008C5.11925 5.88758 4.87348 6.28632 4.6898 6.75648C4.51213 7.21127 4.39066 7.73103 4.35571 8.49205C4.32077 9.25469 4.3125 9.49819 4.3125 11.44C4.3125 13.3818 4.32077 13.6253 4.35571 14.3879C4.39066 15.149 4.51213 15.6687 4.6898 16.1235C4.87348 16.5937 5.11925 16.9924 5.51883 17.39C5.91841 17.7875 6.31925 18.0319 6.79187 18.2147C7.24909 18.3914 7.77157 18.5122 8.53659 18.547C9.30323 18.5818 9.54801 18.59 11.5 18.59C13.452 18.59 13.6968 18.5818 14.4634 18.547C15.2284 18.5122 15.7509 18.3914 16.2081 18.2147C16.6807 18.0319 17.0815 17.7875 17.4812 17.39C17.8807 16.9924 18.1265 16.5937 18.3102 16.1235C18.4878 15.6687 18.6093 15.149 18.6442 14.3879C18.6792 13.6253 18.6875 13.3818 18.6875 11.44C18.6875 9.49819 18.6792 9.25469 18.6442 8.49205C18.6093 7.73103 18.4878 7.21127 18.3102 6.75648C18.1265 6.28632 17.8807 5.88758 17.4812 5.49008C17.0815 5.09259 16.6807 4.8481 16.2081 4.66537C15.7509 4.48864 15.2284 4.36776 14.4634 4.33303C13.6968 4.29822 13.452 4.29 11.5 4.29ZM11.5 5.5783C13.4192 5.5783 13.6465 5.58558 14.4044 5.61999C15.1052 5.65181 15.4857 5.76826 15.739 5.86617C16.0745 5.99586 16.3139 6.15083 16.5654 6.40104C16.817 6.6512 16.9727 6.88943 17.1031 7.22315C17.2015 7.4751 17.3186 7.85365 17.3505 8.55077C17.3851 9.30474 17.3924 9.53086 17.3924 11.44C17.3924 13.3491 17.3851 13.5753 17.3505 14.3292C17.3186 15.0263 17.2015 15.4049 17.1031 15.6568C16.9727 15.9906 16.817 16.2288 16.5654 16.479C16.3139 16.7292 16.0745 16.8841 15.739 17.0138C15.4857 17.1117 15.1052 17.2282 14.4044 17.26C13.6466 17.2944 13.4193 17.3017 11.5 17.3017C9.58071 17.3017 9.35345 17.2944 8.59562 17.26C7.89484 17.2282 7.51431 17.1117 7.26104 17.0138C6.92552 16.8841 6.68608 16.7292 6.43456 16.479C6.18305 16.2288 6.0273 15.9906 5.89694 15.6568C5.79852 15.4049 5.6814 15.0263 5.64942 14.3292C5.61483 13.5753 5.60755 13.3491 5.60755 11.44C5.60755 9.53086 5.61483 9.30474 5.64942 8.55077C5.6814 7.85365 5.79852 7.4751 5.89694 7.22315C6.0273 6.88943 6.18305 6.6512 6.43456 6.40104C6.68608 6.15083 6.92552 5.99586 7.26104 5.86617C7.51431 5.76826 7.89484 5.65181 8.59562 5.61999C9.35354 5.58558 9.58085 5.5783 11.5 5.5783ZM11.5 7.76839C9.46158 7.76839 7.80913 9.41222 7.80913 11.44C7.80913 13.4678 9.46158 15.1116 11.5 15.1116C13.5384 15.1116 15.1909 13.4678 15.1909 11.44C15.1909 9.41222 13.5384 7.76839 11.5 7.76839V7.76839ZM11.5 13.8233C10.1768 13.8233 9.10418 12.7563 9.10418 11.44C9.10418 10.1237 10.1768 9.05668 11.5 9.05668C12.8232 9.05668 13.8958 10.1237 13.8958 11.44C13.8958 12.7563 12.8232 13.8233 11.5 13.8233V13.8233ZM16.1992 7.62333C16.1992 8.0972 15.813 8.48129 15.3367 8.48129C14.8604 8.48129 14.4742 8.0972 14.4742 7.62333C14.4742 7.14946 14.8604 6.76533 15.3367 6.76533C15.813 6.76533 16.1992 7.14946 16.1992 7.62333Z" fill="#E2E2E2" fill-opacity="0.75"/>
</svg>
