<svg width="25" height="25" viewBox="0 0 25 25" fill="none" xmlns="http://www.w3.org/2000/svg">
<path d="M13.6024 10.7548V10.7291C13.5975 10.7374 13.5903 10.7467 13.5854 10.7548H13.6024Z" fill="url(#paint0_linear)" fill-opacity="0.75"/>
<path d="M11.8466 0.346558C5.49527 0.346558 0.346558 5.46841 0.346558 11.7866C0.346558 18.1047 5.49527 23.2266 11.8466 23.2266C18.1978 23.2266 23.3466 18.1047 23.3466 11.7866C23.3466 5.46841 18.1978 0.346558 11.8466 0.346558ZM8.67958 16.2358H6.19284V8.79398H8.67958V16.2358ZM7.43667 7.77841H7.4199C6.58557 7.77841 6.04513 7.20641 6.04513 6.49184C6.04513 5.76169 6.60197 5.20633 7.45271 5.20633C8.30381 5.20633 8.8271 5.76169 8.84351 6.49184C8.84355 7.20641 8.30386 7.77841 7.43667 7.77841ZM17.648 16.2359H15.1612V12.2544C15.1612 11.2543 14.8012 10.5716 13.9012 10.5716C13.214 10.5716 12.8051 11.0315 12.6249 11.4764C12.5593 11.6356 12.5426 11.8568 12.5426 12.0797V16.2358H10.0555C10.0555 16.2358 10.0886 9.49232 10.0555 8.79398H12.5424V9.84871C12.8727 9.34244 13.4631 8.61905 14.7841 8.61905C16.4211 8.61905 17.6479 9.68251 17.648 11.9683V16.2359H17.648Z" fill="url(#paint1_linear)" fill-opacity="0.75"/>
<defs>
<linearGradient id="paint0_linear" x1="0.80631" y1="-3.56965" x2="28.5883" y2="27.5162" gradientUnits="userSpaceOnUse">
<stop offset="0.9999" stop-color="#E2E2E2"/>
<stop offset="1" stop-color="#426699"/>
</linearGradient>
<linearGradient id="paint1_linear" x1="-0.910952" y1="-2.41522" x2="25.2233" y2="26.9836" gradientUnits="userSpaceOnUse">
<stop offset="0.9998" stop-color="#E2E2E2"/>
<stop offset="0.9999" stop-color="#E2E2E2"/>
<stop offset="1" stop-color="#426699"/>
</linearGradient>
</defs>
</svg>
